# xmcd
#
# Track frame offsets:
#	150
#	6932
#	57909
#	134242
#	170833
#	193265
#	214312
#	241362
#	281060
#	321238
#
# Disc length: 4488 seconds
#
# Revision: 1
# Processed by: cddbd v1.5.2PL0 Copyright (c) Steve Scherf et al.
# Submitted via: audiograbber 1.83.01
#
DISCID=a611860a
DTITLE=Grateful Dead - 82-05-21 Greek Theatre, Uni of California, Berkeley CA
DYEAR=1900
DGENRE=
TTITLE0=Crowd Noise - Tuning
TTITLE1=Playing In The Band
TTITLE2=Uncle John's Band
TTITLE3=Drums
TTITLE4=Space
TTITLE5=The Wheel
TTITLE6=Playing In The Band
TTITLE7=Black Peter
TTITLE8=Sugar Magnolia
TTITLE9=Don't Ease Me In
EXTD=
EXTT0=
EXTT1=
EXTT2=
EXTT3=
EXTT4=
EXTT5=
EXTT6=
EXTT7=
EXTT8=
EXTT9=
PLAYORDER=
